<?xml version="1.0" encoding="UTF-8"?><svg xmlns="http://www.w3.org/2000/svg" xmlns:xlink="http://www.w3.org/1999/xlink" height="1237.8" preserveAspectRatio="xMidYMid meet" version="1.0" viewBox="47.6 26.6 1482.3 1237.8" width="1482.3" zoomAndPan="magnify"><g id="change1_1"><path d="M 373.214844 1169.726562 C 373.214844 1222.027344 330.816406 1264.421875 278.515625 1264.421875 C 226.21875 1264.421875 183.820312 1222.027344 183.820312 1169.726562 C 183.820312 1117.429688 226.21875 1075.03125 278.515625 1075.03125 C 330.816406 1075.03125 373.214844 1117.429688 373.214844 1169.726562" fill="inherit"/><path d="M 1526.511719 1233.132812 C 1521.71875 1225.113281 1517.21875 1222.328125 1509.621094 1217.59375 C 1508.898438 1214.753906 1507.988281 1211.9375 1506.589844 1209.316406 C 1504.25 1204.945312 1499.578125 1200.191406 1493.488281 1199.953125 C 1491.488281 1199.863281 1489.589844 1200.28125 1487.738281 1200.890625 C 1485.828125 1197.367188 1483.570312 1197.351562 1485.230469 1192.1875 C 1485.851562 1190.242188 1486.980469 1187.140625 1485.019531 1183.238281 C 1483.558594 1180.320312 1479.398438 1179.949219 1478.160156 1179.5625 C 1476.871094 1174.277344 1474.859375 1168.71875 1471.441406 1163.050781 C 1465.269531 1152.820312 1460.898438 1145.273438 1456.511719 1135.476562 C 1456.679688 1131.179688 1456.351562 1126.160156 1455.28125 1120.261719 C 1448.78125 1084.488281 1420.320312 1000.746094 1407.308594 977.171875 C 1394.300781 953.59375 1389.421875 945.464844 1386.171875 944.648438 C 1382.921875 943.835938 1387.800781 937.332031 1380.480469 925.949219 C 1377.128906 920.742188 1362.589844 896.683594 1355.28125 893.429688 C 1353.710938 892.734375 1351.101562 892.449219 1347.46875 892.671875 C 1342.191406 885.917969 1337.171875 880.460938 1332.5 876.75 C 1315.308594 863.066406 1299.871094 837.453125 1280.21875 823.769531 C 1260.578125 810.085938 1255.660156 799.210938 1253.558594 790.089844 C 1252.011719 783.367188 1240.730469 760.835938 1219.761719 735.269531 C 1220.058594 733.5625 1220 732.066406 1219.5 730.824219 C 1213 714.5625 1186.171875 693.425781 1175.601562 683.667969 C 1165.03125 673.914062 1130.878906 643.832031 1130.878906 643.832031 L 1122.75 607.246094 C 1122.75 607.246094 1144.699219 611.308594 1152.828125 605.617188 C 1160.960938 599.929688 1177.230469 600.742188 1170.71875 584.480469 C 1164.21875 568.21875 1147.140625 516.1875 1146.328125 501.550781 C 1145.519531 486.917969 1172.351562 371.46875 1173.96875 366.589844 C 1175.601562 361.710938 1247.148438 369.84375 1263.410156 356.832031 C 1268.789062 352.21875 1269.988281 338.152344 1269.328125 323.226562 C 1287.609375 322.351562 1303.480469 321.414062 1308.988281 320.992188 C 1322.679688 319.9375 1351.800781 322.746094 1362.320312 318.886719 C 1372.851562 315.027344 1392.5 301.34375 1392.148438 289.769531 C 1391.800781 278.191406 1378.460938 266.609375 1373.550781 258.890625 C 1368.640625 251.171875 1343.03125 239.238281 1316.011719 231.519531 C 1289 223.800781 1258.46875 215.03125 1249 208.371094 C 1239.519531 201.699219 1226.191406 198.539062 1219.878906 192.929688 C 1213.558594 187.320312 1183.738281 153.980469 1177.769531 151.179688 C 1171.808594 148.371094 1152.511719 139.949219 1146.898438 141 C 1141.28125 142.058594 1131.460938 154.328125 1130.410156 157.488281 C 1129.359375 160.648438 1129 177.839844 1129.710938 179.949219 C 1130.410156 182.050781 1133.570312 181.351562 1133.570312 181.351562 L 1140.230469 188.019531 C 1140.230469 188.019531 1140.230469 193.628906 1141.988281 197.839844 C 1143.738281 202.050781 1143.039062 208.71875 1146.550781 208.371094 C 1150.058594 208.019531 1154.269531 201 1154.269531 201 C 1154.269531 201 1158.128906 201.699219 1159.53125 201 C 1164.089844 208.019531 1184.789062 215.03125 1193.558594 217.140625 C 1198.828125 220.648438 1210.75 228.371094 1219.179688 230.820312 C 1227.601562 233.28125 1246.890625 245.210938 1246.890625 245.210938 C 1246.890625 245.210938 1240.808594 244.171875 1234.730469 244.03125 C 1229.910156 239.78125 1225.179688 236.449219 1221.128906 234.878906 C 1206.488281 229.191406 1158.53125 213.738281 1144.699219 216.988281 C 1130.878906 220.25 1099.988281 230 1091.039062 226.75 C 1091.039062 221.058594 1081.289062 207.238281 1069.089844 210.488281 C 1064.730469 211.648438 1058.601562 213.539062 1052.410156 215.53125 C 1042.191406 206.21875 1033.070312 192.820312 1027.609375 183.460938 C 1027.609375 183.460938 1019.890625 171.53125 1017.78125 160.648438 C 1021.289062 163.460938 1024.101562 164.859375 1026.199219 163.460938 C 1028.308594 162.050781 1021.640625 161.699219 1020.589844 151.878906 C 1023.050781 152.230469 1034.269531 145.210938 1030.058594 135.738281 C 1033.21875 137.140625 1035.679688 135.738281 1037.429688 134.339844 C 1039.191406 132.929688 1032.171875 134.339844 1031.121094 121.351562 C 1030.058594 108.371094 1030.410156 97.851562 1014.980469 71.179688 C 999.539062 44.519531 980.59375 30.480469 952.875 36.800781 C 940.242188 27.679688 922 26.621094 894.984375 47.320312 C 867.96875 68.019531 843.054688 98.199219 843.054688 143.109375 C 843.054688 146.621094 844.460938 138.550781 846.566406 136.441406 C 846.914062 153.628906 854.984375 163.460938 859.898438 167.320312 C 862.703125 169.070312 854.285156 158.191406 853.230469 153.980469 C 859.546875 161.699219 862.703125 163.460938 864.457031 163.808594 C 866.214844 164.160156 862.003906 159.949219 861.300781 152.230469 C 864.105469 156.789062 868.316406 159.601562 870.070312 159.601562 C 870.773438 164.859375 879.894531 167.320312 880.597656 169.070312 C 881.300781 170.828125 882.351562 176.789062 882.703125 181.699219 C 883.054688 186.609375 884.457031 190.121094 884.457031 190.121094 C 884.457031 190.121094 884.457031 200.300781 885.859375 203.101562 C 887.265625 205.910156 889.367188 207.308594 894.984375 207.308594 C 898.492188 213.28125 896.035156 219.949219 903.054688 223.101562 C 903.753906 231.171875 911.824219 232.929688 911.824219 232.929688 C 911.824219 232.929688 912.175781 247.308594 925.15625 251.171875 C 920.695312 255.628906 917.242188 260.699219 914.222656 265.71875 C 906.761719 273.550781 896.878906 283.46875 889.414062 286.910156 C 878.84375 291.789062 860.144531 299.921875 855.269531 302.359375 C 850.390625 304.800781 813.804688 348.703125 807.300781 356.832031 C 800.796875 364.964844 768.273438 383.664062 771.527344 392.605469 C 771.800781 393.359375 772.070312 394.5625 772.355469 396.117188 C 763.640625 402.4375 754.613281 409.886719 747.273438 418.179688 C 731.835938 423.792969 717.800781 428.703125 705.871094 437.828125 C 693.941406 446.949219 683.414062 464.84375 687.976562 483.789062 C 692.539062 502.734375 715.695312 506.597656 715.695312 506.597656 C 715.695312 506.597656 724.117188 522.734375 728.675781 525.542969 C 733.238281 528.347656 740.253906 534.664062 745.167969 535.015625 C 750.078125 535.367188 759.550781 533.960938 752.886719 524.839844 C 760.605469 528.699219 765.515625 529.050781 769.726562 527.996094 C 773.9375 526.945312 778.851562 520.628906 773.585938 518.175781 C 768.324219 515.71875 751.480469 507.648438 747.972656 506.945312 C 746.21875 504.492188 747.621094 503.4375 747.621094 503.4375 C 747.621094 503.4375 758.148438 509.050781 762.359375 509.753906 C 766.570312 510.453125 774.289062 511.507812 777.796875 510.105469 C 781.304688 508.699219 783.410156 502.035156 776.742188 498.175781 C 778.148438 491.507812 779.550781 490.808594 779.550781 490.808594 C 779.550781 490.808594 790.425781 485.191406 783.058594 478.878906 C 783.058594 471.511719 778.148438 468.351562 778.148438 468.351562 C 778.148438 468.351562 783.976562 465.207031 792.726562 460.726562 C 799.179688 469.433594 807.816406 475.8125 819.496094 477.160156 C 847.003906 480.335938 877.21875 449.519531 877.21875 449.519531 C 877.21875 449.519531 899.984375 486.917969 900.796875 495.046875 C 901.570312 502.785156 876.605469 540.691406 886.089844 566.0625 C 882.273438 573.984375 878.46875 584.195312 875.363281 594.433594 C 869.945312 603.195312 862.980469 615.460938 859.332031 625.945312 C 842.257812 634.074219 803.234375 644.644531 802.421875 656.839844 C 802.40625 657.039062 802.414062 657.265625 802.433594 657.511719 C 785.078125 667.007812 768.730469 678.554688 757.796875 691.847656 C 755.34375 695.707031 719.203125 706.585938 710.433594 741.320312 C 709.378906 745.527344 697.75 763.148438 710.433594 793.949219 C 712.058594 797.902344 721.550781 813.261719 735.425781 833.183594 C 733.113281 837.351562 731.160156 842.78125 733.3125 847.085938 C 736.0625 852.582031 744.835938 864.84375 747.136719 870.664062 C 751.21875 881.003906 762.253906 880.5 762.019531 878.757812 C 762.019531 878.757812 766.492188 885.113281 767.417969 892.035156 C 768.34375 898.957031 775.4375 906.34375 796.507812 922.316406 C 817.578125 938.289062 846.894531 964.550781 856.894531 969.855469 C 861.765625 972.4375 868.3125 975.390625 874.664062 978.589844 C 879.695312 982.640625 884.925781 986.804688 890.421875 991.128906 C 894.261719 994.5625 895.316406 998.355469 898.0625 1003.023438 C 897.867188 1025.796875 905.570312 1020.65625 907.753906 1025.214844 C 908.019531 1025.773438 908.296875 1026.363281 908.574219 1026.964844 C 903.761719 1027.476562 898.710938 1025.914062 895.183594 1022.574219 C 894.691406 1022.113281 893.921875 1022.128906 893.457031 1022.621094 C 892.996094 1023.109375 893.015625 1023.882812 893.503906 1024.34375 C 897.050781 1027.699219 901.9375 1029.496094 906.800781 1029.496094 C 907.746094 1029.496094 908.6875 1029.402344 909.621094 1029.265625 C 909.730469 1029.503906 909.835938 1029.746094 909.941406 1029.992188 C 909.730469 1030.890625 909.46875 1031.773438 909.117188 1032.628906 C 908.464844 1034.207031 907.597656 1035.683594 906.679688 1037.25 C 905.351562 1039.503906 903.980469 1041.835938 903.324219 1044.496094 C 902.597656 1047.441406 903.316406 1050.960938 905.109375 1053.253906 C 905.402344 1053.628906 905.730469 1053.953125 906.066406 1054.25 C 905.566406 1056.925781 905.394531 1059.65625 905.589844 1062.363281 C 905.746094 1064.523438 906.121094 1066.707031 906.480469 1068.820312 C 907.289062 1073.597656 908.054688 1078.105469 906.542969 1082.308594 C 906.316406 1082.941406 906.644531 1083.640625 907.277344 1083.867188 C 907.414062 1083.917969 907.554688 1083.941406 907.691406 1083.941406 C 908.191406 1083.941406 908.660156 1083.632812 908.839844 1083.132812 C 910.566406 1078.328125 909.710938 1073.289062 908.882812 1068.414062 C 908.53125 1066.355469 908.171875 1064.230469 908.023438 1062.183594 C 907.863281 1059.960938 907.980469 1057.722656 908.335938 1055.515625 C 908.902344 1055.695312 909.484375 1055.816406 910.09375 1055.816406 L 910.144531 1055.816406 C 913.03125 1055.796875 915.59375 1053.816406 917.5 1050.21875 C 917.816406 1051.222656 918.136719 1052.257812 918.453125 1053.3125 L 915.832031 1059.378906 C 914.8125 1061.742188 912.914062 1066.136719 914.886719 1069.738281 C 915.488281 1070.835938 916.433594 1071.816406 917.707031 1072.660156 C 919.558594 1073.890625 921.722656 1074.539062 923.917969 1074.671875 C 926.074219 1084.628906 928.058594 1096.09375 929.683594 1109.269531 C 929.796875 1114.507812 930.300781 1119.292969 931.476562 1123.421875 C 935.492188 1146.167969 946.703125 1152.960938 954.457031 1150.886719 C 967.277344 1146.796875 979.265625 1125.519531 983.320312 1108.90625 C 990.917969 1111.832031 990.753906 1100.976562 986.15625 1098.902344 C 987.976562 1092.46875 990.203125 1084.605469 991.828125 1076.570312 C 995.625 1079.191406 998.234375 1076.839844 998.847656 1072.382812 C 999.464844 1067.925781 992.460938 1067.484375 992.460938 1067.484375 C 992.460938 1067.484375 991.46875 1064.117188 992.070312 1064.285156 C 998.074219 1063.671875 998.308594 1053.699219 991.902344 1053.429688 C 986.0625 1039.652344 986.0625 1029.347656 986.0625 1029.347656 C 986.21875 1029.503906 990.199219 1029.1875 991.007812 1023.578125 C 991.746094 1018.429688 994.429688 1014.765625 991.234375 1012.316406 C 994.46875 1003.195312 989.066406 1001.667969 989.066406 1001.667969 C 989.066406 1001.667969 990.078125 998.09375 988.09375 993.671875 C 986.105469 989.246094 979.304688 988.09375 979.304688 988.09375 C 979.304688 988.09375 975.148438 975.359375 969.566406 970.792969 C 960.179688 963.113281 948.6875 960.578125 938.660156 958.363281 C 933.761719 957.28125 932.578125 953.484375 928.578125 952.988281 C 925.851562 952.648438 922.789062 953.917969 919.867188 955.828125 C 908.417969 944.074219 889.074219 913.53125 869.722656 872.890625 C 867.464844 868.378906 872.21875 839.585938 851.558594 806.59375 C 851.964844 803.222656 852.046875 800.128906 851.203125 798.304688 C 849.039062 793.617188 843.457031 787.253906 837.160156 781.726562 C 847.511719 781.292969 857.78125 781.414062 867.769531 781.613281 C 871.894531 788.550781 878.523438 796.539062 887.789062 798.304688 C 904.863281 801.558594 936.570312 802.371094 951.203125 790.988281 C 965.839844 785.296875 993.480469 779.605469 993.480469 779.605469 C 993.480469 779.605469 1014.621094 793.425781 1029.25 798.304688 C 1043.890625 803.183594 1075.878906 816.4375 1086.171875 821.882812 C 1099.011719 828.683594 1111.5 839.046875 1131.328125 827.0625 C 1152.671875 839.644531 1163.378906 834.398438 1176.371094 845.171875 C 1190.761719 857.101562 1223.03125 885.871094 1243.738281 904.46875 C 1251.539062 911.476562 1257.300781 919.386719 1262.101562 928.152344 C 1260.550781 931.539062 1259.589844 935.652344 1260.96875 939.769531 C 1264.21875 949.527344 1269.28125 964.089844 1271.539062 969.855469 C 1273.839844 975.734375 1278.46875 980.523438 1285.371094 984.226562 C 1296.640625 1011.378906 1307.101562 1028.6875 1340.921875 1049.371094 C 1349.339844 1054.632812 1394.25 1112.878906 1404.429688 1140.59375 C 1411.5 1159.855469 1417.550781 1176.0625 1420.699219 1185.691406 C 1419.621094 1186.390625 1418.640625 1186.949219 1417.789062 1187.316406 C 1412.699219 1189.511719 1416.328125 1195.9375 1417.230469 1198.230469 C 1418.601562 1201.695312 1419.640625 1204.371094 1420.101562 1207.394531 C 1418.261719 1208.960938 1416.660156 1210.984375 1415.488281 1213.382812 C 1413.21875 1218.039062 1412.621094 1223.367188 1412.089844 1228.066406 L 1410.691406 1240.410156 C 1410.609375 1241.078125 1411.089844 1241.683594 1411.761719 1241.757812 C 1411.808594 1241.765625 1411.859375 1241.769531 1411.898438 1241.769531 C 1412.511719 1241.769531 1413.039062 1241.308594 1413.109375 1240.6875 L 1414.511719 1228.339844 C 1415.050781 1223.617188 1415.601562 1218.730469 1417.691406 1214.449219 C 1418.328125 1213.128906 1419.230469 1211.753906 1420.339844 1210.523438 C 1420.359375 1212.175781 1420.210938 1213.996094 1419.859375 1216.128906 C 1419.671875 1217.320312 1420.398438 1216.996094 1421.480469 1216.011719 C 1421.46875 1217.242188 1421.480469 1218.480469 1421.511719 1219.726562 C 1417.820312 1229.59375 1420.039062 1240.828125 1423.628906 1250.90625 C 1424.21875 1252.546875 1424.871094 1254.226562 1426.140625 1255.511719 C 1428.351562 1257.734375 1431.878906 1258.289062 1435.21875 1258.613281 C 1435.421875 1259.519531 1435.738281 1260.40625 1436.238281 1261.203125 C 1436.449219 1261.550781 1436.699219 1261.890625 1437.039062 1262.136719 C 1437.648438 1262.578125 1438.460938 1262.648438 1439.21875 1262.703125 C 1441.46875 1262.859375 1443.730469 1263.019531 1445.980469 1263.179688 C 1446.460938 1263.214844 1446.941406 1263.246094 1447.410156 1263.140625 C 1448.109375 1262.976562 1448.691406 1262.515625 1449.199219 1262.015625 C 1449.828125 1261.386719 1450.359375 1260.652344 1450.761719 1259.863281 C 1453.191406 1260.011719 1455.609375 1260.125 1458.039062 1260.191406 C 1458.339844 1261.183594 1458.800781 1262.140625 1459.441406 1262.988281 C 1459.710938 1263.34375 1460.011719 1263.6875 1460.410156 1263.921875 C 1461.121094 1264.347656 1462.019531 1264.367188 1462.871094 1264.375 C 1465.371094 1264.390625 1467.871094 1264.40625 1470.378906 1264.421875 C 1470.910156 1264.425781 1471.449219 1264.425781 1471.949219 1264.285156 C 1472.710938 1264.066406 1473.320312 1263.535156 1473.828125 1262.96875 C 1474.671875 1262.039062 1475.320312 1260.929688 1475.671875 1259.765625 C 1478.070312 1259.636719 1480.710938 1259.484375 1483.460938 1259.320312 C 1483.800781 1260.273438 1484.300781 1261.179688 1484.980469 1261.972656 C 1485.261719 1262.292969 1485.570312 1262.601562 1485.960938 1262.808594 C 1486.660156 1263.175781 1487.511719 1263.152344 1488.308594 1263.117188 C 1490.679688 1263.019531 1493.050781 1262.921875 1495.421875 1262.824219 C 1495.921875 1262.800781 1496.429688 1262.78125 1496.898438 1262.621094 C 1497.609375 1262.382812 1498.148438 1261.855469 1498.601562 1261.300781 C 1499.328125 1260.398438 1499.878906 1259.339844 1500.140625 1258.238281 C 1502.910156 1258.042969 1505.53125 1257.847656 1507.859375 1257.664062 C 1508.230469 1258.777344 1508.761719 1259.832031 1509.449219 1260.730469 C 1509.691406 1261.046875 1509.949219 1261.347656 1510.261719 1261.542969 C 1510.808594 1261.898438 1511.429688 1261.863281 1512.011719 1261.820312 C 1513.71875 1261.683594 1515.429688 1261.554688 1517.148438 1261.417969 C 1517.511719 1261.390625 1517.878906 1261.363281 1518.199219 1261.199219 C 1518.691406 1260.949219 1519.019531 1260.417969 1519.28125 1259.863281 C 1519.789062 1258.777344 1520.050781 1257.46875 1520.011719 1256.140625 C 1522.289062 1255.601562 1522.910156 1255.261719 1524.480469 1254.386719 C 1528.660156 1252.054688 1529.808594 1248.289062 1529.738281 1243.871094 C 1529.679688 1239.453125 1528.828125 1237.027344 1526.511719 1233.132812 Z M 1161.628906 182.050781 L 1158.128906 181.699219 L 1160.230469 176.789062 L 1165.140625 177.839844 Z M 764.230469 493.101562 C 764.230469 493.101562 758.414062 489.589844 753.585938 488.492188 L 755.339844 484.210938 C 755.339844 484.210938 761.816406 483.769531 764.449219 488.492188 C 763.792969 491.015625 764.230469 493.101562 764.230469 493.101562 Z M 923.367188 1072.171875 C 921.828125 1071.980469 920.335938 1071.476562 919.058594 1070.628906 C 918.117188 1070.003906 917.433594 1069.3125 917.023438 1068.566406 C 915.734375 1066.207031 916.890625 1063.089844 918.070312 1060.347656 L 919.523438 1056.980469 C 920.832031 1061.585938 922.125 1066.640625 923.367188 1072.171875 Z M 916.363281 1046.703125 C 916.296875 1046.9375 916.226562 1047.171875 916.136719 1047.390625 C 915.234375 1049.617188 913.25 1053.355469 910.128906 1053.378906 L 910.09375 1054.597656 L 910.09375 1053.378906 C 909.609375 1053.378906 909.195312 1053.261719 908.808594 1053.105469 C 909.84375 1048.835938 911.792969 1044.773438 914.476562 1041.296875 C 915.097656 1043.003906 915.726562 1044.804688 916.363281 1046.703125 Z M 911.414062 1033.433594 C 912.089844 1035.058594 912.785156 1036.789062 913.492188 1038.648438 C 910.378906 1042.328125 908.074219 1046.703125 906.761719 1051.355469 C 905.628906 1049.640625 905.183594 1047.140625 905.695312 1045.078125 C 906.265625 1042.765625 907.488281 1040.6875 908.78125 1038.484375 C 909.703125 1036.917969 910.65625 1035.296875 911.371094 1033.558594 C 911.390625 1033.519531 911.398438 1033.476562 911.414062 1033.433594 Z M 1494.789062 1207.9375 C 1493.621094 1207.5 1490.761719 1204.882812 1489.148438 1203.007812 C 1490.558594 1202.59375 1491.960938 1202.339844 1493.390625 1202.386719 C 1498.460938 1202.589844 1502.421875 1206.691406 1504.441406 1210.464844 C 1505.308594 1212.085938 1505.96875 1213.820312 1506.519531 1215.601562 C 1504.5 1214.082031 1498.769531 1209.425781 1494.789062 1207.9375" fill="inherit"/><path d="M 855.558594 441.4375 C 853.398438 434.953125 849.074219 419.464844 845.472656 412.980469 C 841.871094 406.496094 836.105469 395.328125 829.621094 389.207031 C 823.140625 383.082031 816.292969 376.957031 813.050781 375.15625 C 819.175781 365.789062 823.5 344.535156 812.332031 329.765625 C 801.164062 314.996094 799.363281 306.710938 790.71875 303.46875 C 782.070312 300.226562 772.347656 300.226562 770.183594 297.707031 C 769.394531 296.785156 767.039062 294.890625 763.265625 292.921875 C 762.976562 290.679688 762.269531 289.078125 761.03125 288.328125 C 752.902344 283.460938 733.386719 276.949219 730.136719 275.328125 C 726.882812 273.699219 669.972656 234.671875 659.402344 232.238281 C 648.835938 229.800781 622.003906 231.421875 608.183594 233.050781 C 594.359375 234.671875 574.847656 224.921875 574.847656 224.921875 C 574.847656 224.921875 577.648438 210.839844 547.882812 217.410156 C 547.160156 213.808594 546.316406 209.289062 546.121094 206.929688 C 550.804688 206.570312 552.242188 201.878906 554.046875 198.640625 C 555.847656 195.398438 557.648438 193.960938 557.648438 193.960938 C 557.648438 193.960938 563.410156 198.28125 566.292969 198.28125 C 569.175781 198.28125 561.25 192.878906 560.527344 186.390625 C 561.609375 178.828125 564.132812 166.21875 559.449219 160.460938 C 559.808594 157.21875 559.089844 152.171875 559.089844 152.171875 C 559.089844 152.171875 563.410156 157.941406 563.769531 160.820312 C 564.132812 162.980469 569.535156 156.140625 558.726562 130.921875 C 563.410156 135.960938 565.210938 135.238281 568.09375 134.160156 C 570.976562 133.078125 564.132812 133.078125 563.410156 122.628906 C 562.691406 112.191406 557.285156 94.898438 544.679688 88.769531 C 553.683594 90.570312 558.367188 93.089844 560.890625 94.539062 C 563.410156 95.980469 556.566406 85.53125 540.355469 82.289062 C 534.230469 69.679688 527.746094 66.078125 525.585938 66.078125 C 523.425781 66.078125 529.550781 71.839844 527.746094 75.441406 C 524.144531 70.398438 502.890625 60.308594 489.921875 58.511719 C 476.953125 56.710938 466.507812 56.351562 460.382812 59.230469 C 457.144531 61.03125 466.867188 61.03125 465.066406 65.71875 C 451.019531 65.71875 434.449219 78.320312 427.964844 86.25 C 421.480469 94.179688 416.796875 99.941406 414.273438 101.378906 C 411.753906 102.820312 420.398438 103.179688 422.199219 101.738281 C 411.753906 111.828125 408.871094 119.390625 408.511719 122.269531 C 408.511719 124.429688 412.472656 118.308594 417.15625 116.511719 C 412.113281 124.070312 411.03125 128.761719 415.355469 135.960938 C 409.953125 145.328125 413.554688 149.648438 413.554688 149.648438 C 413.554688 149.648438 416.074219 157.941406 414.636719 160.460938 C 413.195312 162.980469 418.957031 160.460938 420.398438 154.691406 C 420.398438 162.261719 420.039062 169.820312 427.601562 172.351562 C 426.523438 187.839844 428.324219 199.71875 433.007812 205.851562 C 433.726562 219.898438 434.449219 233.589844 443.8125 244.75 C 442.722656 245.980469 441.554688 247.21875 440.324219 248.480469 C 430.09375 255.25 410.148438 268.21875 406.550781 268.820312 C 401.675781 269.640625 369.964844 278.578125 364.273438 285.078125 C 358.585938 291.589844 348.554688 311.371094 342.050781 317.0625 C 339.285156 319.480469 338.09375 325.488281 338.382812 333.027344 C 334.371094 336.527344 332.140625 339.855469 332.140625 339.855469 C 332.140625 339.855469 315.570312 344.175781 302.964844 349.578125 C 290.355469 354.984375 272.703125 362.1875 256.132812 374.4375 C 239.5625 386.683594 211.464844 404.695312 192.371094 412.980469 C 173.277344 421.265625 170.757812 425.589844 158.148438 427.75 C 145.539062 429.910156 127.167969 433.515625 118.164062 434.953125 C 109.15625 436.394531 88.265625 447.5625 88.265625 447.5625 C 88.265625 447.5625 81.058594 448.285156 74.214844 451.527344 C 67.371094 454.769531 59.445312 457.289062 51.160156 463.773438 C 47.558594 465.933594 52.960938 471.699219 64.488281 467.375 C 61.605469 473.140625 55.484375 478.902344 55.84375 482.867188 C 56.203125 485.746094 64.847656 485.386719 70.253906 479.265625 C 76.015625 479.984375 80.699219 478.542969 85.382812 468.816406 C 90.066406 465.933594 95.828125 459.8125 95.828125 459.8125 C 95.828125 459.8125 103.035156 459.089844 106.636719 460.53125 C 110.238281 461.972656 123.566406 459.8125 126.808594 460.171875 C 130.050781 460.53125 128.25 467.375 128.25 467.375 C 128.25 467.375 116.003906 467.375 110.238281 469.898438 C 104.476562 472.417969 97.628906 474.222656 98.710938 479.265625 C 99.792969 484.308594 114.199219 484.667969 119.964844 484.667969 C 125.730469 484.667969 135.816406 480.703125 145.539062 478.902344 C 155.269531 477.101562 172.558594 470.617188 179.761719 457.289062 C 180.84375 455.128906 215.066406 435.675781 230.195312 431.351562 C 245.324219 427.03125 301.523438 417.664062 311.96875 414.78125 C 322.414062 411.898438 338.984375 413.339844 355.558594 397.492188 C 356.515625 397.035156 357.601562 396.554688 358.757812 396.046875 C 362.929688 406.714844 368.121094 416.050781 377.824219 420.046875 C 385.144531 423.296875 390.835938 422.210938 390.835938 422.210938 C 390.835938 422.210938 400.117188 456.960938 406.011719 476.414062 C 416.851562 512.1875 386.496094 573.976562 410.347656 584.816406 C 414.410156 599.453125 409.804688 602.976562 409.804688 602.976562 C 409.804688 602.976562 361.835938 636.039062 356.144531 646.605469 C 354.828125 649.054688 353.269531 653.390625 352.097656 659.214844 C 338.757812 672.199219 326.902344 688.007812 322.773438 712.335938 C 311.96875 727.824219 305.84375 746.554688 312.328125 765.648438 C 312.328125 778.730469 307.394531 800.324219 307.472656 826.164062 C 303.886719 828.109375 300.128906 831.085938 301.132812 834.726562 C 302.957031 841.355469 309.191406 861.628906 309.792969 868.597656 C 310.113281 872.347656 312.347656 874.703125 314.339844 876.085938 C 315.277344 879.859375 316.3125 883.714844 317.425781 887.628906 C 317.160156 889.597656 316.726562 891.660156 316.019531 893.625 C 313.402344 900.882812 316.441406 911.933594 328.484375 938.929688 C 340.527344 965.921875 354.152344 1006.214844 361.023438 1016.804688 C 365.90625 1024.332031 375.878906 1035.917969 382.609375 1046.097656 C 383.960938 1049.871094 384.863281 1052.554688 385.097656 1053.472656 C 385.777344 1056.203125 385.746094 1065.816406 387.980469 1076.253906 C 386.746094 1078.90625 385.664062 1081.585938 384.914062 1084.140625 C 381.691406 1095.132812 396.578125 1104.972656 396.84375 1110.976562 C 396.992188 1114.441406 397.996094 1118.007812 399.527344 1122.136719 C 398.273438 1123.25 396.632812 1124.09375 394.851562 1123.933594 C 391.9375 1123.671875 389.894531 1120.847656 389.234375 1118.335938 C 388.4375 1115.328125 388.945312 1111.949219 389.394531 1108.96875 C 389.496094 1108.300781 389.035156 1107.679688 388.367188 1107.578125 C 387.6875 1107.476562 387.082031 1107.9375 386.984375 1108.605469 C 386.496094 1111.820312 385.949219 1115.464844 386.871094 1118.960938 C 387.746094 1122.265625 390.546875 1125.992188 394.632812 1126.363281 C 394.847656 1126.382812 395.058594 1126.390625 395.269531 1126.390625 C 397.054688 1126.390625 398.867188 1125.722656 400.449219 1124.539062 C 401.0625 1126.085938 401.730469 1127.710938 402.449219 1129.445312 C 401.703125 1131.84375 400.789062 1134.191406 399.664062 1136.453125 C 399.34375 1137.097656 399.007812 1137.738281 398.671875 1138.378906 C 397.421875 1140.761719 396.132812 1143.222656 395.589844 1145.976562 C 394.894531 1149.527344 395.761719 1154.058594 399.261719 1156.179688 C 400.382812 1156.863281 401.714844 1157.222656 403.113281 1157.222656 C 403.578125 1157.222656 404.046875 1157.171875 404.511719 1157.09375 L 404.492188 1162.210938 C 404.492188 1163.25 404.484375 1164.671875 405.328125 1165.847656 C 406.136719 1166.972656 407.484375 1167.566406 409.230469 1167.566406 C 409.785156 1167.566406 410.375 1167.503906 410.976562 1167.386719 C 412.414062 1167.101562 413.75 1166.621094 415.007812 1166.007812 C 416.890625 1173.441406 418.65625 1181.914062 420.148438 1191.703125 C 424.3125 1218.984375 431.441406 1236.25 445.832031 1236.644531 C 458.191406 1232.191406 473.207031 1212.066406 476.761719 1195.359375 C 484.207031 1198.058594 483.796875 1187.222656 479.28125 1185.28125 C 480.898438 1178.804688 482.878906 1170.886719 484.273438 1162.816406 C 488.019531 1165.320312 490.5 1162.898438 490.992188 1158.429688 C 491.488281 1153.957031 484.671875 1153.71875 484.671875 1153.71875 C 484.671875 1153.71875 483.632812 1150.382812 484.21875 1150.535156 C 490.039062 1149.75 490.035156 1139.78125 483.804688 1139.695312 C 477.808594 1126.101562 477.566406 1115.8125 477.566406 1115.8125 C 477.722656 1115.960938 481.585938 1115.53125 482.238281 1109.90625 C 482.835938 1104.742188 485.359375 1101.007812 482.195312 1098.652344 C 485.125 1089.445312 479.84375 1088.074219 479.84375 1088.074219 C 479.84375 1088.074219 480.742188 1084.476562 478.710938 1080.113281 C 476.675781 1075.753906 470.039062 1074.796875 470.039062 1074.796875 C 470.039062 1074.796875 465.703125 1062.199219 460.175781 1057.800781 C 450.878906 1050.398438 444.480469 1048.570312 435.007812 1045.414062 C 433.292969 1044.839844 437.863281 1037.414062 431.007812 1033.984375 C 430.003906 1033.480469 428.726562 1033.5 427.273438 1033.894531 C 421.296875 1013.136719 422.152344 985.195312 420.398438 964.136719 C 418.238281 938.199219 419.316406 926.3125 421.480469 919.828125 C 423.640625 913.34375 431.925781 885.605469 421.117188 853.90625 C 420.632812 852.480469 420.140625 851.101562 419.648438 849.71875 C 421.753906 847.285156 423.808594 844.535156 422.851562 841.054688 C 421.179688 834.976562 409.910156 803.609375 401.035156 800.109375 C 400.636719 799.949219 399.839844 799.929688 398.734375 800.019531 C 397.261719 796.414062 396.246094 793.460938 395.902344 791.226562 C 398.582031 791.722656 401.875 791.765625 405.441406 791.472656 C 410.15625 794.988281 415.128906 797.289062 420.101562 797.289062 C 438.960938 797.289062 487.3125 785.09375 497.070312 777.773438 C 508.453125 783.464844 522.816406 789.15625 525.253906 792.410156 C 527.691406 795.660156 537.179688 832.519531 543.683594 837.398438 C 546.859375 839.78125 554.972656 844.621094 568.117188 848.859375 C 577.664062 870.015625 589.667969 889.960938 592.230469 898.214844 C 594.75 910.820312 605.199219 954.050781 613.84375 972.421875 C 620.8125 987.230469 631.0625 996.890625 643.832031 1007.0625 C 642.390625 1008.179688 641.457031 1009 641.175781 1009.433594 C 636.769531 1016.214844 650.058594 1034.144531 652.085938 1037.941406 C 652.917969 1039.503906 656.1875 1040.804688 659.933594 1041.882812 C 662.996094 1050.464844 667.144531 1057.785156 672.921875 1061.761719 C 684.449219 1069.683594 704.261719 1088.417969 712.546875 1103.1875 C 715.132812 1107.792969 717.398438 1112.152344 719.296875 1116.050781 C 713.859375 1121.222656 719.460938 1132.414062 719.324219 1132.949219 C 715.886719 1146.425781 719.296875 1154.265625 722.667969 1160.664062 C 718.519531 1163.453125 713.746094 1165.328125 708.835938 1165.945312 C 708.167969 1166.027344 707.695312 1166.640625 707.777344 1167.308594 C 707.855469 1167.925781 708.382812 1168.375 708.988281 1168.375 C 709.039062 1168.375 709.089844 1168.371094 709.140625 1168.363281 C 714.421875 1167.703125 719.453125 1165.777344 723.839844 1162.867188 C 724.015625 1163.199219 724.195312 1163.527344 724.363281 1163.855469 C 724.597656 1164.300781 724.824219 1164.84375 725.046875 1165.441406 C 724.1875 1167.828125 723.339844 1170.285156 722.9375 1172.882812 C 722.097656 1178.359375 723.34375 1183.949219 724.441406 1188.878906 C 724.863281 1190.78125 725.445312 1193.386719 727.289062 1195.117188 C 728.144531 1195.921875 729.15625 1196.425781 730.15625 1196.832031 C 731.246094 1203.1875 732.339844 1210.105469 731.753906 1211.558594 C 726.863281 1223.78125 729.902344 1235.945312 733.269531 1248.921875 C 733.757812 1250.804688 734.296875 1252.730469 735.363281 1254.207031 C 737.207031 1256.753906 740.148438 1257.390625 742.9375 1257.761719 C 743.105469 1258.800781 743.375 1259.816406 743.789062 1260.730469 C 743.96875 1261.132812 744.175781 1261.519531 744.460938 1261.800781 C 744.96875 1262.304688 745.644531 1262.386719 746.277344 1262.449219 C 748.160156 1262.632812 750.039062 1262.8125 751.917969 1262.996094 C 752.316406 1263.035156 752.722656 1263.074219 753.109375 1262.953125 C 753.695312 1262.765625 754.183594 1262.234375 754.601562 1261.660156 C 755.128906 1260.941406 755.574219 1260.097656 755.90625 1259.195312 C 756.648438 1259.257812 757.394531 1259.28125 758.136719 1259.332031 C 759.398438 1259.523438 760.703125 1259.6875 762.058594 1259.824219 C 762.308594 1260.871094 762.65625 1261.882812 763.152344 1262.777344 C 763.378906 1263.1875 763.628906 1263.578125 763.960938 1263.851562 C 764.554688 1264.339844 765.304688 1264.359375 766.011719 1264.367188 C 768.101562 1264.386719 770.191406 1264.402344 772.28125 1264.421875 C 772.722656 1264.425781 773.171875 1264.429688 773.589844 1264.261719 C 774.230469 1264.011719 774.734375 1263.402344 775.160156 1262.757812 C 775.648438 1262.019531 776.050781 1261.179688 776.351562 1260.292969 C 778.773438 1260.21875 781.210938 1260.074219 783.621094 1259.847656 C 783.859375 1260.46875 784.128906 1261.070312 784.46875 1261.613281 C 784.699219 1261.980469 784.957031 1262.335938 785.28125 1262.570312 C 785.863281 1262.992188 786.574219 1262.964844 787.242188 1262.929688 C 789.222656 1262.816406 791.199219 1262.703125 793.175781 1262.589844 C 793.59375 1262.566406 794.019531 1262.539062 794.410156 1262.355469 C 795.003906 1262.082031 795.457031 1261.476562 795.832031 1260.84375 C 796.394531 1259.890625 796.804688 1258.78125 797.039062 1257.628906 C 797.628906 1257.480469 798.207031 1257.328125 798.777344 1257.167969 C 800.464844 1257 802.09375 1256.832031 803.554688 1256.671875 C 803.871094 1257.949219 804.3125 1259.15625 804.886719 1260.191406 C 805.089844 1260.550781 805.304688 1260.898438 805.5625 1261.121094 C 806.023438 1261.527344 806.539062 1261.488281 807.023438 1261.4375 C 808.453125 1261.285156 809.882812 1261.132812 811.308594 1260.980469 C 811.613281 1260.949219 811.921875 1260.914062 812.1875 1260.726562 C 812.59375 1260.441406 812.871094 1259.832031 813.089844 1259.195312 C 813.515625 1257.949219 813.730469 1256.449219 813.699219 1254.925781 C 815.597656 1254.308594 817.5 1253.480469 818.808594 1252.476562 C 822.296875 1249.804688 823.828125 1243.960938 823.773438 1238.894531 C 823.722656 1233.828125 822.726562 1228.316406 820.785156 1223.851562 C 816.363281 1213.679688 809.988281 1204.8125 802.328125 1198.175781 C 802.152344 1198.023438 801.972656 1197.867188 801.796875 1197.710938 C 800.972656 1195.695312 800.140625 1193.695312 799.304688 1191.71875 C 799.285156 1191.121094 799.230469 1190.523438 799.0625 1189.960938 C 796.257812 1180.652344 792.5625 1175.277344 791.554688 1169.230469 C 791.414062 1168.398438 790.464844 1162.910156 789.289062 1156.203125 C 790.871094 1156.882812 792.5 1157.472656 794.207031 1157.894531 C 796.046875 1158.347656 797.921875 1158.578125 799.777344 1158.578125 C 801.589844 1158.578125 803.320312 1158.347656 804.9375 1157.917969 C 804.945312 1159.308594 804.804688 1160.683594 804.503906 1162.015625 C 804.4375 1162.3125 804.367188 1162.605469 804.292969 1162.898438 C 803.984375 1164.144531 803.664062 1165.433594 803.800781 1166.824219 C 803.953125 1168.433594 804.699219 1169.84375 805.386719 1171.042969 C 807.394531 1174.546875 809.804688 1177.832031 812.546875 1180.800781 C 812.785156 1181.058594 813.113281 1181.191406 813.441406 1181.191406 C 813.738281 1181.191406 814.035156 1181.085938 814.269531 1180.867188 C 814.765625 1180.410156 814.796875 1179.640625 814.339844 1179.144531 C 811.722656 1176.308594 809.421875 1173.175781 807.5 1169.828125 C 806.914062 1168.808594 806.335938 1167.714844 806.226562 1166.589844 C 806.132812 1165.613281 806.390625 1164.578125 806.660156 1163.484375 C 806.738281 1163.175781 806.8125 1162.859375 806.882812 1162.550781 C 807.28125 1160.773438 807.421875 1158.933594 807.34375 1157.078125 C 808.9375 1156.386719 810.382812 1155.480469 811.601562 1154.351562 C 814.867188 1151.316406 816.585938 1145.722656 813.664062 1141.980469 C 811.40625 1139.089844 807.789062 1138.753906 805.265625 1138.753906 C 803.671875 1138.753906 802.058594 1138.910156 800.640625 1139.050781 C 800.089844 1139.101562 799.539062 1139.136719 798.988281 1139.175781 C 798.824219 1139.015625 798.671875 1138.851562 798.507812 1138.699219 C 794.8125 1135.265625 790.175781 1132.597656 784.683594 1130.683594 C 784.429688 1129.390625 784.246094 1128.519531 784.164062 1128.242188 C 779.796875 1114.136719 775.40625 1108.546875 774.421875 1108.425781 C 772.265625 1108.152344 772.25 1100.558594 769.039062 1097.734375 C 769.726562 1094.527344 770.175781 1091.554688 769.972656 1089.164062 C 769.230469 1080.246094 772.382812 1062.140625 769.160156 1042.007812 C 765.910156 1021.683594 761.84375 1010.300781 756.152344 1005.421875 C 751.625 1001.539062 749.648438 994.851562 749.648438 994.851562 C 749.648438 994.851562 751.273438 989.5 748.023438 985.910156 C 744.773438 982.320312 740.558594 970.660156 735.015625 966.398438 C 730.585938 962.988281 725.875 961.878906 721.890625 961.726562 C 714.226562 954.695312 706.664062 947.851562 703.179688 942.523438 C 697.058594 933.15625 695.257812 902.898438 696.335938 887.769531 C 696.824219 880.957031 697.011719 865.667969 695.964844 847.28125 C 698.507812 845.378906 699.871094 843.101562 700.054688 840.378906 C 700.847656 828.460938 683.011719 730.109375 675.367188 709.699219 C 675.039062 708.816406 674.753906 707.9375 674.515625 707.023438 C 669.527344 687.683594 644.496094 631.429688 644.496094 631.429688 C 644.496094 631.429688 659.945312 634.140625 664.011719 613.003906 C 668.074219 591.863281 648.835938 578.585938 645.582031 561.511719 C 642.328125 544.4375 672.683594 378.851562 672.683594 378.851562 C 672.683594 378.851562 687.316406 389.960938 701.949219 390.777344 C 715.488281 398.296875 737.820312 380.078125 746.246094 360.574219 C 753.546875 360.949219 761.179688 360.027344 761.179688 360.027344 C 761.179688 360.027344 765.503906 361.105469 763.339844 368.671875 C 761.179688 376.238281 761.898438 393.890625 760.816406 403.613281 C 759.738281 413.339844 759.738281 425.230469 759.378906 429.550781 C 759.015625 433.875 755.054688 439.996094 754.335938 444.320312 C 753.613281 448.644531 744.609375 460.171875 749.289062 461.972656 C 753.972656 463.773438 765.140625 456.570312 767.300781 446.484375 C 768.742188 441.078125 777.027344 432.433594 781.710938 431.351562 C 784.234375 434.59375 788.554688 439.996094 790.355469 442.519531 C 792.160156 445.042969 794.679688 452.605469 795.761719 456.210938 C 796.839844 459.8125 801.523438 468.097656 805.847656 467.375 C 810.171875 466.65625 808.730469 452.96875 806.929688 447.203125 C 805.128906 441.4375 801.886719 432.792969 801.886719 432.792969 C 801.886719 432.792969 805.488281 433.515625 806.929688 434.234375 C 808.367188 434.953125 813.410156 446.484375 817.015625 450.445312 C 820.617188 454.40625 825.300781 464.132812 827.820312 467.015625 C 830.34375 469.898438 836.105469 477.101562 839.710938 476.019531 C 843.3125 474.941406 843.3125 467.375 838.628906 460.171875 C 833.945312 452.96875 830.34375 442.519531 830.34375 442.519531 C 830.34375 442.519531 837.1875 452.246094 840.070312 457.648438 C 842.949219 463.054688 847.632812 471.339844 853.398438 467.734375 C 857 465.214844 850.515625 455.488281 849.074219 451.164062 C 853.039062 452.605469 857.722656 447.925781 855.558594 441.4375 Z M 805.265625 1141.191406 C 808.464844 1141.191406 810.523438 1141.921875 811.746094 1143.484375 C 813.75 1146.050781 812.429688 1150.253906 809.9375 1152.5625 C 809.109375 1153.332031 808.148438 1153.976562 807.09375 1154.503906 C 806.378906 1149.90625 804.304688 1145.332031 801.097656 1141.453125 C 802.410156 1141.328125 803.867188 1141.191406 805.265625 1141.191406 Z M 804.765625 1155.421875 C 803.222656 1155.882812 801.550781 1156.136719 799.777344 1156.136719 C 798.117188 1156.136719 796.441406 1155.933594 794.789062 1155.523438 C 792.707031 1155.007812 790.714844 1154.230469 788.777344 1153.300781 C 788.082031 1149.355469 787.34375 1145.183594 786.660156 1141.386719 C 790.433594 1141.785156 794.238281 1141.859375 798.019531 1141.648438 C 801.777344 1145.601562 804.136719 1150.527344 804.765625 1155.421875 Z M 795.496094 1139.339844 C 792.398438 1139.402344 789.289062 1139.246094 786.210938 1138.890625 C 785.847656 1136.886719 785.507812 1135.046875 785.214844 1133.476562 C 789.175781 1134.992188 792.609375 1136.953125 795.496094 1139.339844 Z M 410.222656 1149.703125 C 409.621094 1150.910156 408.90625 1151.921875 408.058594 1152.730469 C 407.722656 1153.050781 407.351562 1153.339844 406.960938 1153.59375 L 406.972656 1150.699219 C 406.980469 1148.257812 407 1145.515625 407.921875 1143.183594 C 408.679688 1145.230469 409.449219 1147.402344 410.222656 1149.703125 Z M 405.871094 1141.742188 C 404.554688 1144.640625 404.542969 1147.855469 404.53125 1150.691406 L 404.519531 1154.617188 C 404.050781 1154.71875 403.578125 1154.78125 403.113281 1154.78125 C 402.148438 1154.78125 401.277344 1154.550781 400.523438 1154.09375 C 398.042969 1152.589844 397.46875 1149.074219 397.984375 1146.445312 C 398.453125 1144.039062 399.609375 1141.84375 400.832031 1139.511719 C 401.175781 1138.855469 401.519531 1138.199219 401.847656 1137.539062 C 402.605469 1136.019531 403.273438 1134.460938 403.867188 1132.875 C 404.789062 1135.113281 405.761719 1137.515625 406.769531 1140.121094 C 406.4375 1140.640625 406.128906 1141.171875 405.871094 1141.742188 Z M 410.503906 1164.992188 C 410.058594 1165.082031 409.628906 1165.125 409.230469 1165.125 C 408.582031 1165.125 407.726562 1165.003906 407.308594 1164.425781 C 406.957031 1163.933594 406.929688 1163.136719 406.933594 1162.21875 L 406.953125 1156.355469 C 407.972656 1155.894531 408.929688 1155.269531 409.742188 1154.496094 C 410.28125 1153.980469 410.777344 1153.40625 411.230469 1152.773438 C 412.296875 1156.105469 413.355469 1159.699219 414.386719 1163.597656 C 413.183594 1164.230469 411.894531 1164.71875 410.503906 1164.992188 Z M 728.957031 1193.335938 C 727.761719 1192.214844 727.28125 1190.410156 726.820312 1188.347656 C 725.71875 1183.394531 724.578125 1178.273438 725.351562 1173.253906 C 725.546875 1171.992188 725.867188 1170.738281 726.246094 1169.496094 C 727.523438 1174.789062 728.394531 1181.726562 728.394531 1185.691406 C 728.394531 1186.6875 728.964844 1189.957031 729.640625 1193.859375 C 729.398438 1193.703125 729.164062 1193.53125 728.957031 1193.335938" fill="inherit"/></g></svg>