<?xml version="1.0" encoding="UTF-8"?><svg xmlns="http://www.w3.org/2000/svg" xmlns:xlink="http://www.w3.org/1999/xlink" data-name="Layer 1" height="442.3" preserveAspectRatio="xMidYMid meet" version="1.0" viewBox="0.0 -0.6 439.0 442.3" width="439.0" zoomAndPan="magnify"><defs><radialGradient cx="220.62" cy="212.82" gradientUnits="userSpaceOnUse" id="a" r="236.14" xlink:actuate="onLoad" xlink:show="other" xlink:type="simple" xmlns:xlink="http://www.w3.org/1999/xlink"><stop offset="0" stop-color="#f2f2f2"/><stop offset="1" stop-color="#1a1a1a"/></radialGradient></defs><path d="M271.22,156a1.55,1.55,0,1,1-1.54-1.55A1.54,1.54,0,0,1,271.22,156ZM263,150.28a1.59,1.59,0,1,0-1.59,1.58A1.59,1.59,0,0,0,263,150.28Zm-10.55-3.1a1.62,1.62,0,0,0,0-3.23,1.62,1.62,0,1,0,0,3.23Zm-9.57-6.87a1.65,1.65,0,1,0,1.65,1.65A1.65,1.65,0,0,0,242.86,140.31Zm-11.77-.78a1.69,1.69,0,0,0,3.37,0,1.69,1.69,0,1,0-3.37,0Zm-8.84-2.88a1.72,1.72,0,1,0,1.72,1.71A1.71,1.71,0,0,0,222.25,136.65Zm-9,1.89a1.75,1.75,0,1,0-1.75,1.75A1.75,1.75,0,0,0,213.25,138.54Zm-12.17,3.28A1.79,1.79,0,1,0,199.3,140,1.79,1.79,0,0,0,201.08,141.82Zm-8.14,1a1.82,1.82,0,1,0-1.82,1.82A1.82,1.82,0,0,0,192.94,142.78Zm-11.24,5.76a1.86,1.86,0,1,0-1.85-1.86A1.86,1.86,0,0,0,181.7,148.54Zm-8.8,5a1.89,1.89,0,1,0-1.89-1.88A1.88,1.88,0,0,0,172.9,153.55Zm-6.17,4.09a1.92,1.92,0,1,0-1.92,1.92A1.92,1.92,0,0,0,166.73,157.64Zm-9.23,4.93a2,2,0,1,0,2,2A2,2,0,0,0,157.5,162.57Zm-4.44,9.67a2,2,0,1,0-2,2A2,2,0,0,0,153.06,172.24Zm-9.5,8.47a2,2,0,1,0,2-2A2,2,0,0,0,143.56,180.71Zm-2.41,11.18a2.06,2.06,0,1,0-2.06-2.06A2.06,2.06,0,0,0,141.15,191.89Zm-1.23,7.65a2.1,2.1,0,1,0-2.1,2.09A2.1,2.1,0,0,0,139.92,199.54Zm-4.22,8.07a2.13,2.13,0,1,0,2.13,2.13A2.14,2.14,0,0,0,135.7,207.61Zm-.84,14.91a2.16,2.16,0,1,0-2.16-2.16A2.17,2.17,0,0,0,134.86,222.52Zm.52,10.74a2.2,2.2,0,1,0-2.2-2.2A2.2,2.2,0,0,0,135.38,233.26Zm1.82,10.34a2.23,2.23,0,1,0-2.23-2.23A2.23,2.23,0,0,0,137.2,243.6Zm.77,7.61a2.27,2.27,0,1,0,2.27-2.27A2.27,2.27,0,0,0,138,251.21Zm8.75,9.27a2.3,2.3,0,1,0-2.3,2.3A2.3,2.3,0,0,0,146.72,260.48Zm2.93,11a2.33,2.33,0,1,0-2.33-2.33A2.33,2.33,0,0,0,149.65,271.44Zm6.22,7.94A2.37,2.37,0,1,0,153.5,277,2.37,2.37,0,0,0,155.87,279.38Zm9.5,4.73a2.4,2.4,0,1,0-2.4,2.4A2.4,2.4,0,0,0,165.37,284.11Zm3.07,6.2a2.44,2.44,0,1,0,2.44-2.43A2.44,2.44,0,0,0,168.44,290.31Zm11.07,7.7a2.47,2.47,0,1,0-2.47-2.47A2.46,2.46,0,0,0,179.51,298Zm11.79,1.7a2.51,2.51,0,1,0-2.51,2.51A2.5,2.5,0,0,0,191.3,299.71Zm7.33,5.57a2.54,2.54,0,1,0-2.54-2.54A2.54,2.54,0,0,0,198.63,305.28ZM209,302a2.58,2.58,0,1,0,2.57,2.57A2.58,2.58,0,0,0,209,302Zm8.09,3.07a2.61,2.61,0,1,0,2.61-2.6A2.61,2.61,0,0,0,217,305.05Zm13.23-3.48a2.64,2.64,0,1,0,2.64,2.64A2.65,2.65,0,0,0,230.27,301.57Zm10.2,3.18a2.68,2.68,0,1,0-2.68-2.67A2.68,2.68,0,0,0,240.47,304.75Zm9.7-8.72a2.71,2.71,0,1,0,2.71,2.71A2.71,2.71,0,0,0,250.17,296ZM262,294.29a2.75,2.75,0,1,0-2.74,2.74A2.74,2.74,0,0,0,262,294.29ZM265,288.8a2.78,2.78,0,1,0,2.77-2.78A2.77,2.77,0,0,0,265,288.8Zm10.48-3.63a2.81,2.81,0,1,0-2.81-2.81A2.81,2.81,0,0,0,275.45,285.17Zm6.88-7.28a2.85,2.85,0,1,0-2.84-2.84A2.84,2.84,0,0,0,282.33,277.89ZM291.18,267a2.88,2.88,0,1,0-2.88,2.88A2.88,2.88,0,0,0,291.18,267Zm2.09-5.89a2.92,2.92,0,1,0-2.91-2.92A2.92,2.92,0,0,0,293.27,261.06Zm3.9-15.29a2.95,2.95,0,1,0,2.95,2.95A2.95,2.95,0,0,0,297.17,245.77Zm5.71-7a3,3,0,1,0-3,3A3,3,0,0,0,302.88,238.75Zm1.53-10.42a3,3,0,1,0-3,3A3,3,0,0,0,304.41,228.33Zm-2.86-13.8a3.05,3.05,0,1,0,3.06,3.05A3.06,3.06,0,0,0,301.55,214.53ZM300.38,204a3.09,3.09,0,1,0,3.08,3.08A3.08,3.08,0,0,0,300.38,204Zm-2.44-10.12a3.12,3.12,0,1,0,3.12,3.12A3.12,3.12,0,0,0,297.94,193.86Zm-3.62-9.6a3.16,3.16,0,1,0,3.15,3.16A3.15,3.15,0,0,0,294.32,184.26Zm-4.72-2.62a3.19,3.19,0,1,0-3.19-3.19A3.19,3.19,0,0,0,289.6,181.64Zm-2.51-11.46a3.23,3.23,0,1,0-3.23,3.22A3.23,3.23,0,0,0,287.09,170.18Zm-13.15-7.51a3.26,3.26,0,1,0,3.26-3.26A3.26,3.26,0,0,0,273.94,162.67ZM179.46,269.75a1.14,1.14,0,1,0,1.13-1.13A1.13,1.13,0,0,0,179.46,269.75Zm6,4.2a1.16,1.16,0,1,0,1.16-1.16A1.16,1.16,0,0,0,185.5,274Zm7.73,4.63a1.19,1.19,0,1,0-1.19-1.19A1.18,1.18,0,0,0,193.23,278.58Zm7,2.67A1.21,1.21,0,1,0,199,280,1.21,1.21,0,0,0,200.23,281.25Zm6.16.57a1.23,1.23,0,1,0,1.23-1.23A1.23,1.23,0,0,0,206.39,281.82Zm8.94,2.11a1.26,1.26,0,1,0-1.26-1.26A1.25,1.25,0,0,0,215.33,283.93Zm6.58-1.39a1.29,1.29,0,1,0,1.29-1.28A1.29,1.29,0,0,0,221.91,282.54Zm8.92-2.4a1.31,1.31,0,1,0,1.3,1.31A1.3,1.3,0,0,0,230.83,280.14Zm7.29.63a1.34,1.34,0,1,0-1.33-1.33A1.33,1.33,0,0,0,238.12,280.77Zm5.54-4.19a1.36,1.36,0,1,0,1.36-1.36A1.36,1.36,0,0,0,243.66,276.58Zm7.8-5a1.38,1.38,0,1,0,1.39,1.38A1.38,1.38,0,0,0,251.46,271.55Zm5.93-4.4a1.41,1.41,0,1,0,1.41,1.4A1.41,1.41,0,0,0,257.39,267.15Zm5.35-2.21a1.43,1.43,0,1,0-1.43-1.43A1.43,1.43,0,0,0,262.74,264.94Zm3.25-7.08a1.46,1.46,0,1,0,1.46-1.46A1.46,1.46,0,0,0,266,257.86Zm7-6.2a1.49,1.49,0,1,0-1.49,1.49A1.49,1.49,0,0,0,273,251.66Zm.26-6.68a1.51,1.51,0,1,0,1.51-1.51A1.52,1.52,0,0,0,273.21,245Zm5.48-7.11a1.54,1.54,0,1,0-1.54,1.54A1.54,1.54,0,0,0,278.69,237.87Zm1.58-7.47a1.56,1.56,0,1,0-1.56,1.56A1.56,1.56,0,0,0,280.27,230.4Zm-2.53-7.77a1.58,1.58,0,1,0,1.58-1.59A1.58,1.58,0,0,0,277.74,222.63Zm1.2-9.45a1.61,1.61,0,1,0,1.61,1.61A1.61,1.61,0,0,0,278.94,213.18Zm-1.33-7.58a1.64,1.64,0,1,0,1.64,1.64A1.64,1.64,0,0,0,277.61,205.6Zm-2.23-7.22A1.66,1.66,0,1,0,277,200,1.65,1.65,0,0,0,275.38,198.38Zm-3.06-6.82a1.69,1.69,0,1,0,1.69,1.68A1.68,1.68,0,0,0,272.32,191.56Zm-5.54-4.64a1.71,1.71,0,1,0,1.71-1.7A1.7,1.7,0,0,0,266.78,186.92Zm-1.11-5.78a1.73,1.73,0,1,0-1.73,1.73A1.73,1.73,0,0,0,265.67,181.14Zm-5.17-5.2a1.76,1.76,0,1,0-1.76,1.76A1.76,1.76,0,0,0,260.5,175.94Zm-5.77-4.54a1.79,1.79,0,1,0-1.78,1.78A1.79,1.79,0,0,0,254.73,171.4Zm-9.92-3.83a1.81,1.81,0,1,0,1.81-1.81A1.81,1.81,0,0,0,244.81,167.57Zm-5-4.89a1.84,1.84,0,1,0,1.83,1.83A1.83,1.83,0,0,0,239.83,162.68Zm-7.21-2.24a1.86,1.86,0,1,0,1.86,1.85A1.86,1.86,0,0,0,232.62,160.44ZM227,161a1.89,1.89,0,1,0-1.88,1.88A1.88,1.88,0,0,0,227,161Zm-9.72,1.54a1.91,1.91,0,1,0-1.91-1.91A1.91,1.91,0,0,0,217.23,162.51Zm-5.84-1.29a1.94,1.94,0,1,0-1.93,1.94A1.93,1.93,0,0,0,211.39,161.22ZM204,162.78a2,2,0,1,0-2,2A2,2,0,0,0,204,162.78Zm-7.08,2.45a2,2,0,1,0-2,2A2,2,0,0,0,196.87,165.23Zm-6.66,3.26a2,2,0,1,0-2,2A2,2,0,0,0,190.21,168.49Zm-6.16,4a2,2,0,1,0-2,2A2,2,0,0,0,184.05,172.51Zm-9.74,4.71a2.06,2.06,0,1,0,2.06-2.06A2.06,2.06,0,0,0,174.31,177.22Zm-3,7.44a2.09,2.09,0,1,0-2.09-2.08A2.08,2.08,0,0,0,171.33,184.66Zm-6.48,3.85A2.11,2.11,0,1,0,167,186.4,2.11,2.11,0,0,0,164.85,188.51Zm-1.53,4.31a2.14,2.14,0,1,0,2.13,2.14A2.14,2.14,0,0,0,163.32,192.82Zm-.7,9a2.16,2.16,0,1,0-2.16,2.16A2.16,2.16,0,0,0,162.62,201.86ZM158.46,207a2.19,2.19,0,1,0,2.19,2.19A2.19,2.19,0,0,0,158.46,207Zm-1.09,12a2.21,2.21,0,1,0-2.21-2.21A2.21,2.21,0,0,0,157.37,219Zm-.12,7.89a2.24,2.24,0,1,0-2.23-2.23A2.23,2.23,0,0,0,157.25,226.89Zm.86,7.73a2.26,2.26,0,1,0-2.26-2.26A2.26,2.26,0,0,0,158.11,234.62ZM159.9,242a2.29,2.29,0,1,0-2.29-2.28A2.29,2.29,0,0,0,159.9,242Zm2.65,7a2.31,2.31,0,1,0-2.31-2.31A2.3,2.3,0,0,0,162.55,249.06Zm5.79,4.25a2.34,2.34,0,1,0-2.33,2.34A2.33,2.33,0,0,0,168.34,253.31Zm1.87,3.71a2.36,2.36,0,1,0,2.36,2.36A2.35,2.35,0,0,0,170.21,257Zm7.27,7.85a2.39,2.39,0,1,0-2.39,2.39A2.39,2.39,0,0,0,177.48,264.87Zm54.66,58.48a1.92,1.92,0,1,0,0,2.72A1.93,1.93,0,0,0,232.14,323.35Zm12.36.5a2,2,0,1,0-2.78,0A2,2,0,0,0,244.5,323.85Zm9.23-6.56a2,2,0,1,0,2.84,0A2,2,0,0,0,253.73,317.29Zm14.47-2.37a2.05,2.05,0,1,0-2.9,0A2.05,2.05,0,0,0,268.2,314.92Zm11-6.71a2.09,2.09,0,1,0-3,0A2.09,2.09,0,0,0,279.24,308.21Zm7.3-11.23a2.14,2.14,0,1,0,3,0A2.14,2.14,0,0,0,286.54,297Zm12.35-9.64a2.18,2.18,0,1,0,0,3.08A2.18,2.18,0,0,0,298.89,287.34Zm7.88-7.37a2.22,2.22,0,1,0-3.14,0A2.23,2.23,0,0,0,306.77,280Zm6.38-11.15a2.27,2.27,0,1,0-3.2,0A2.26,2.26,0,0,0,313.15,268.82Zm1.63-15a2.31,2.31,0,1,0,3.26,0A2.29,2.29,0,0,0,314.78,253.86Zm6.65-8.84a2.35,2.35,0,1,0-3.32,0A2.34,2.34,0,0,0,321.43,245Zm1.89-15.73a2.39,2.39,0,1,0,0,3.38A2.38,2.38,0,0,0,323.32,229.29Zm.4-12.52a2.43,2.43,0,1,0,0,3.44A2.43,2.43,0,0,0,323.72,216.77Zm-4.6-12.48a2.47,2.47,0,1,0,3.5,0A2.47,2.47,0,0,0,319.12,204.29ZM316.46,192a2.52,2.52,0,1,0,3.57,0A2.52,2.52,0,0,0,316.46,192Zm-4.15-12a2.57,2.57,0,1,0,3.63,0A2.57,2.57,0,0,0,312.31,180Zm-2-7.81a2.6,2.6,0,1,0-3.68,0A2.6,2.6,0,0,0,310.35,172.2Zm-10.83-10.81a2.65,2.65,0,1,0,0-3.75A2.66,2.66,0,0,0,299.52,161.39Zm-8.63-13.86a2.69,2.69,0,1,0,3.8,0A2.68,2.68,0,0,0,290.89,147.53Zm-6-5.13a2.73,2.73,0,1,0-3.86,0A2.73,2.73,0,0,0,284.85,142.4ZM270.28,135a2.78,2.78,0,1,0,0-3.93A2.79,2.79,0,0,0,270.28,135ZM258.92,125a2.82,2.82,0,1,0,4,0A2.82,2.82,0,0,0,258.92,125Zm-11.87-4.51a2.86,2.86,0,1,0,4,0A2.86,2.86,0,0,0,247.05,120.51Zm-8.13,1.09a2.9,2.9,0,1,0-4.1,0A2.9,2.9,0,0,0,238.92,121.6ZM222.37,116a2.95,2.95,0,1,0,4.16,0A2.93,2.93,0,0,0,222.37,116Zm-8.3,0a3,3,0,1,0,0,4.23A3,3,0,0,0,214.07,116Zm-16.68,5.76a3,3,0,1,0,0-4.29A3,3,0,0,0,197.39,121.71Zm-7.88-1.32a3.08,3.08,0,1,0,0,4.35A3.08,3.08,0,0,0,189.51,120.39Zm-11.81,4.46a3.12,3.12,0,1,0,0,4.41A3.13,3.13,0,0,0,177.7,124.85Zm-11.3,6a3.16,3.16,0,1,0,0,4.47A3.16,3.16,0,0,0,166.4,130.81Zm-10.63,12a3.2,3.2,0,1,0-4.53,0A3.2,3.2,0,0,0,155.77,142.8Zm-9.84,9a3.24,3.24,0,1,0-4.58,0A3.24,3.24,0,0,0,145.93,151.81Zm-13.21,5.47a3.29,3.29,0,1,0,4.65,0A3.3,3.3,0,0,0,132.72,157.28Zm-2.42,15.53a3.33,3.33,0,1,0-4.71,0A3.33,3.33,0,0,0,130.3,172.81Zm-5.58,6.73a3.37,3.37,0,1,0,0,4.77A3.36,3.36,0,0,0,124.72,179.54Zm-4.07,11.91a3.42,3.42,0,1,0,0,4.83A3.42,3.42,0,0,0,120.65,191.45Zm-2.59,17.14a3.45,3.45,0,1,0-4.88,0A3.44,3.44,0,0,0,118.06,208.59Zm-6,12.48a3.5,3.5,0,1,0,0-4.95A3.49,3.49,0,0,0,112,221.07Zm5.36,12.52a3.54,3.54,0,1,0-5,0A3.55,3.55,0,0,0,117.39,233.59ZM119.3,246a3.59,3.59,0,1,0-5.07,0A3.59,3.59,0,0,0,119.3,246Zm3.4,7a3.63,3.63,0,1,0,0,5.13A3.64,3.64,0,0,0,122.7,253Zm4.9,11.69a3.67,3.67,0,1,0,0,5.2A3.68,3.68,0,0,0,127.6,264.71Zm6.39,16.4a3.71,3.71,0,1,0-5.25,0A3.71,3.71,0,0,0,134,281.11Zm7.89,10.51a3.75,3.75,0,1,0-5.31,0A3.75,3.75,0,0,0,141.88,291.62Zm9.35,4.26a3.8,3.8,0,1,0,0,5.38A3.8,3.8,0,0,0,151.23,295.88Zm10.32,13.63a3.84,3.84,0,1,0-5.43,0A3.84,3.84,0,0,0,161.55,309.51Zm11,6.75a3.88,3.88,0,1,0-5.49,0A3.87,3.87,0,0,0,172.6,316.26Zm11.63,5.26a3.92,3.92,0,1,0-5.55,0A3.91,3.91,0,0,0,184.23,321.52Zm12.07-1.84a4,4,0,1,0,0,5.61A4,4,0,0,0,196.3,319.68Zm12.37,2.2a4,4,0,1,0,0,5.68A4,4,0,0,0,208.67,321.88Zm12.5,6.45a4.05,4.05,0,1,0-5.73,0A4,4,0,0,0,221.17,328.33ZM91.38,239A2.4,2.4,0,1,0,88,239,2.4,2.4,0,0,0,91.38,239ZM90.76,251a2.45,2.45,0,1,0,3.47,0A2.45,2.45,0,0,0,90.76,251Zm8.18,15a2.51,2.51,0,1,0,0,3.55A2.5,2.5,0,0,0,98.94,265.93Zm3,14.43a2.56,2.56,0,1,0,3.62,0A2.57,2.57,0,0,0,101.9,280.36ZM114,297.77a2.62,2.62,0,1,0-3.7,0A2.62,2.62,0,0,0,114,297.77Zm10.31,9.1a2.67,2.67,0,1,0,0,3.77A2.65,2.65,0,0,0,124.28,306.87Zm8.18,11.57a2.72,2.72,0,1,0,3.85,0A2.72,2.72,0,0,0,132.46,318.44Zm13,9.75a2.77,2.77,0,1,0,3.92,0A2.78,2.78,0,0,0,145.51,328.19Zm17.91,11.89a2.83,2.83,0,1,0-4,0A2.84,2.84,0,0,0,163.42,340.08Zm14.67,6.09a2.88,2.88,0,1,0-4.07,0A2.89,2.89,0,0,0,178.09,346.17Zm11,.09a2.93,2.93,0,1,0,4.15,0A2.92,2.92,0,0,0,189.11,346.26Zm15.41,2.29a3,3,0,1,0,4.22,0A3,3,0,0,0,204.52,348.55Zm19.85,4.71a3,3,0,1,0-4.3,0A3,3,0,0,0,224.37,353.26Zm15.57-1.37a3.09,3.09,0,1,0-4.37,0A3.08,3.08,0,0,0,239.94,351.89Zm15.35-3.23a3.15,3.15,0,1,0-4.45,0A3.14,3.14,0,0,0,255.29,348.66Zm14.94-5.11a3.2,3.2,0,1,0-4.53,0A3.21,3.21,0,0,0,270.23,343.55Zm14.34-7a3.25,3.25,0,1,0-4.6,0A3.25,3.25,0,0,0,284.57,336.58Zm13.57-8.83a3.31,3.31,0,1,0-4.67,0A3.31,3.31,0,0,0,298.14,327.75ZM310.76,317a3.36,3.36,0,1,0-4.75,0A3.36,3.36,0,0,0,310.76,317ZM322,299.94a3.41,3.41,0,1,0,0,4.83A3.41,3.41,0,0,0,322,299.94Zm4.47-13.35a3.46,3.46,0,1,0,4.89,0A3.44,3.44,0,0,0,326.45,286.59Zm12.39-9.21a3.51,3.51,0,1,0-5,0A3.5,3.5,0,0,0,338.84,277.38Zm5.63-19.78a3.57,3.57,0,1,0,0,5A3.58,3.58,0,0,0,344.47,257.6Zm3.76-10.14a3.62,3.62,0,1,0-5.12,0A3.61,3.61,0,0,0,348.23,247.46Zm-3.3-20.66a3.68,3.68,0,1,0,5.2,0A3.69,3.69,0,0,0,344.93,226.8Zm5.23-15.63a3.73,3.73,0,1,0,0,5.28A3.72,3.72,0,0,0,350.16,211.17ZM348.32,201a3.78,3.78,0,1,0-5.35,0A3.78,3.78,0,0,0,348.32,201Zm-9.12-20.62a3.84,3.84,0,1,0,5.42,0A3.84,3.84,0,0,0,339.2,180.37Zm-5.65-9.3a3.89,3.89,0,1,0,0-5.5A3.89,3.89,0,0,0,333.55,171.07ZM326,151.4a3.94,3.94,0,1,0,5.57,0A3.94,3.94,0,0,0,326,151.4Zm-9.38-7.7a4,4,0,1,0,0-5.65A4,4,0,0,0,316.66,143.7Zm-11.24-12.27a4,4,0,1,0,0-5.72A4.06,4.06,0,0,0,305.42,131.43ZM292.8,114.94a4.1,4.1,0,1,0,5.8,0A4.09,4.09,0,0,0,292.8,114.94Zm-13.58-8.89a4.15,4.15,0,1,0,5.87,0A4.15,4.15,0,0,0,279.22,106.05Zm-14.35-7a4.21,4.21,0,1,0,5.95,0A4.19,4.19,0,0,0,264.87,99Zm-14.94.86a4.26,4.26,0,1,0,0-6A4.26,4.26,0,0,0,249.93,99.88Zm-15.35-3.22a4.31,4.31,0,1,0,0-6.1A4.32,4.32,0,0,0,234.58,96.66ZM219,89.13a4.37,4.37,0,1,0,6.18,0A4.35,4.35,0,0,0,219,89.13Zm-9.37.43a4.42,4.42,0,1,0,0,6.26A4.43,4.43,0,0,0,209.63,89.56Zm-21.74,8.63a4.47,4.47,0,1,0,0-6.32A4.47,4.47,0,0,0,187.89,98.19ZM172.73,96a4.53,4.53,0,1,0,6.4,0A4.52,4.52,0,0,0,172.73,96Zm-14.66,6a4.57,4.57,0,1,0,6.47,0A4.57,4.57,0,0,0,158.07,102.08Zm-14,7.9a4.64,4.64,0,1,0,6.56,0A4.65,4.65,0,0,0,144.08,110ZM131,119.75a4.69,4.69,0,1,0,6.63,0A4.69,4.69,0,0,0,131,119.75Zm-12,11.58a4.74,4.74,0,1,0,6.7,0A4.75,4.75,0,0,0,119,131.33Zm-10.3,19.59a4.79,4.79,0,1,0,0-6.78A4.8,4.8,0,0,0,108.65,150.92Zm-8.43,6.93a4.84,4.84,0,1,0,6.85,0A4.85,4.85,0,0,0,100.22,157.85Zm.37,14.44a4.9,4.9,0,1,0,0,6.93A4.91,4.91,0,0,0,100.59,172.29ZM89,194.28a4.95,4.95,0,1,0,0-7A5,5,0,0,0,89,194.28Zm-2.83,15.43a5,5,0,1,0,0-7.08A5,5,0,0,0,86.13,209.71Zm-1,15.6a5.06,5.06,0,1,0,0-7.15A5,5,0,0,0,85.17,225.31Zm255.56,95.16a2.89,2.89,0,1,0-2.89-2.88A2.88,2.88,0,0,0,340.73,320.47Zm10.68-15.39a2.95,2.95,0,1,0-3-2.94A2.94,2.94,0,0,0,351.41,305.08Zm8.78-16.66a3,3,0,1,0-3-3A3,3,0,0,0,360.19,288.42Zm6.74-23.93a3.08,3.08,0,1,0,3.07,3.07A3.07,3.07,0,0,0,366.93,264.49Zm4.53-12.6a3.14,3.14,0,1,0-3.14-3.14A3.15,3.15,0,0,0,371.46,251.89Zm5.38-22.77a3.21,3.21,0,1,0-3.21,3.21A3.21,3.21,0,0,0,376.84,229.12Zm-6.8-20a3.27,3.27,0,1,0,3.27-3.27A3.26,3.26,0,0,0,370,209.08Zm.47-22.77a3.34,3.34,0,1,0,3.33,3.33A3.33,3.33,0,0,0,370.51,186.31Zm-5.12-11.85a3.4,3.4,0,1,0-3.39-3.4A3.4,3.4,0,0,0,365.39,174.46ZM358.11,157a3.46,3.46,0,1,0-3.46-3.46A3.46,3.46,0,0,0,358.11,157Zm-5.77-19.87a3.52,3.52,0,1,0-3.52,3.52A3.51,3.51,0,0,0,352.34,137.08ZM337.68,118.4a3.59,3.59,0,1,0,3.58,3.58A3.58,3.58,0,0,0,337.68,118.4ZM324.83,112a3.65,3.65,0,1,0-3.65-3.65A3.65,3.65,0,0,0,324.83,112ZM310.44,92.64a3.72,3.72,0,1,0,3.71,3.72A3.73,3.73,0,0,0,310.44,92.64Zm-19.56-6.5a3.78,3.78,0,1,0,3.77-3.78A3.77,3.77,0,0,0,290.88,86.14Zm-13.25-4.45a3.84,3.84,0,1,0-3.84-3.84A3.84,3.84,0,0,0,277.63,81.69Zm-18.1-14a3.91,3.91,0,1,0,3.9,3.91A3.91,3.91,0,0,0,259.53,67.74Zm-19-4a4,4,0,1,0,4,4A4,4,0,0,0,240.5,63.72Zm-15.77,2.41a4,4,0,1,0-4,4A4,4,0,0,0,224.73,66.13Zm-24-3.14a4.1,4.1,0,1,0,4.1,4.1A4.11,4.11,0,0,0,200.73,63ZM181.5,66.32a4.16,4.16,0,1,0,4.16,4.16A4.16,4.16,0,0,0,181.5,66.32Zm-22.57,9.83a4.23,4.23,0,1,0,4.23-4.22A4.23,4.23,0,0,0,158.93,76.15ZM145.86,88.24A4.29,4.29,0,1,0,141.57,84,4.29,4.29,0,0,0,145.86,88.24Zm-16.1,9.83a4.36,4.36,0,1,0-4.35-4.35A4.35,4.35,0,0,0,129.76,98.07ZM115,100.89a4.42,4.42,0,1,0,4.42,4.41A4.41,4.41,0,0,0,115,100.89Zm-13.23,13.18a4.48,4.48,0,1,0,4.48,4.48A4.48,4.48,0,0,0,101.79,114.07Zm-7,19.23a4.55,4.55,0,1,0-4.55,4.55A4.55,4.55,0,0,0,94.76,133.3ZM80.46,154a4.61,4.61,0,1,0-4.61-4.61A4.6,4.6,0,0,0,80.46,154ZM68,166.72a4.67,4.67,0,1,0,4.67-4.67A4.67,4.67,0,0,0,68,166.72ZM67,189.8a4.74,4.74,0,1,0-4.74-4.73A4.73,4.73,0,0,0,67,189.8Zm-8.17,14.51a4.8,4.8,0,1,0,4.8-4.8A4.79,4.79,0,0,0,58.86,204.31Zm3.86,24.83a4.87,4.87,0,1,0-4.86-4.87A4.87,4.87,0,0,0,62.72,229.14ZM64.3,249a4.93,4.93,0,1,0-4.93-4.93A4.93,4.93,0,0,0,64.3,249Zm4,19.09a5,5,0,1,0-5-5A5,5,0,0,0,68.28,268.09Zm6.21,18.16a5.06,5.06,0,1,0-5-5.06A5.07,5.07,0,0,0,74.49,286.25ZM87.92,298.2a5.12,5.12,0,1,0-5.12,5.12A5.12,5.12,0,0,0,87.92,298.2Zm5.11,21A5.18,5.18,0,1,0,87.85,314,5.18,5.18,0,0,0,93,319.16Zm12,14.44a5.25,5.25,0,1,0-5.25-5.24A5.25,5.25,0,0,0,105.05,333.6Zm13.64,12.9a5.31,5.31,0,1,0-5.31-5.31A5.31,5.31,0,0,0,118.69,346.5Zm20.48,5.82a5.38,5.38,0,1,0-5.37,5.37A5.37,5.37,0,0,0,139.17,352.32Zm16.49,9.28a5.44,5.44,0,1,0-5.44,5.43A5.44,5.44,0,0,0,155.66,361.6Zm12.14,1.76a5.5,5.5,0,1,0,5.5,5.5A5.5,5.5,0,0,0,167.8,363.36Zm18.59,16.16a5.57,5.57,0,1,0-5.57-5.56A5.56,5.56,0,0,0,186.39,379.52Zm19.43,2.84a5.63,5.63,0,1,0-5.62-5.63A5.63,5.63,0,0,0,205.82,382.36Zm20.05.37a5.69,5.69,0,1,0-5.69-5.69A5.69,5.69,0,0,0,225.87,382.73Zm19.62-2.13a5.76,5.76,0,1,0-5.75-5.75A5.75,5.75,0,0,0,245.49,380.6Zm24.63-10.3a5.82,5.82,0,1,0-5.82,5.82A5.82,5.82,0,0,0,270.12,370.3Zm17.9-6.76a5.88,5.88,0,1,0-5.88,5.88A5.88,5.88,0,0,0,288,363.54Zm10.84-14.75a6,6,0,1,0,5.94,5.95A5.95,5.95,0,0,0,298.86,348.79Zm9.42-4.75a6,6,0,1,0,6-6A6,6,0,0,0,308.28,344Zm20-6.36a6.08,6.08,0,1,0-6.07-6.07A6.08,6.08,0,0,0,328.3,337.68Zm33-.59a3.37,3.37,0,1,0-3.37-3.37A3.37,3.37,0,0,0,361.32,337.09Zm15.92-21.42a3.45,3.45,0,1,0-3.44,3.44A3.44,3.44,0,0,0,377.24,315.67Zm6.82-23.06a3.52,3.52,0,1,0,3.52,3.52A3.52,3.52,0,0,0,384.06,292.61Zm7.87-13.74a3.59,3.59,0,1,0-3.59-3.59A3.59,3.59,0,0,0,391.93,278.87Zm5.29-29.24a3.67,3.67,0,1,0,3.67,3.67A3.67,3.67,0,0,0,397.22,249.63Zm2.54-15.51a3.75,3.75,0,1,0-3.74-3.74A3.74,3.74,0,0,0,399.76,234.12Zm-.38-23.35a3.82,3.82,0,1,0-3.82-3.81A3.81,3.81,0,0,0,399.38,210.77Zm.62-26.51a3.89,3.89,0,1,0-3.89,3.89A3.89,3.89,0,0,0,400,184.26Zm-5.9-21.7a4,4,0,1,0-4,4A4,4,0,0,0,394.1,162.56ZM377.59,142a4,4,0,1,0,4-4A4,4,0,0,0,377.59,142ZM370.78,127a4.12,4.12,0,1,0-4.12-4.11A4.11,4.11,0,0,0,370.78,127Zm-13-17.56a4.19,4.19,0,1,0-4.19-4.19A4.19,4.19,0,0,0,357.76,109.41ZM338.49,89.3A4.27,4.27,0,1,0,342.75,85,4.27,4.27,0,0,0,338.49,89.3Zm-12.55-9.68a4.34,4.34,0,1,0-4.34-4.33A4.33,4.33,0,0,0,325.94,79.62ZM307.5,67.76a4.42,4.42,0,1,0-4.41-4.42A4.41,4.41,0,0,0,307.5,67.76ZM287.62,49.17a4.49,4.49,0,1,0,4.49,4.49A4.49,4.49,0,0,0,287.62,49.17Zm-21.15-7.31A4.56,4.56,0,1,0,271,46.42,4.56,4.56,0,0,0,266.47,41.86ZM239.6,41.8a4.64,4.64,0,1,0,4.64-4.64A4.63,4.63,0,0,0,239.6,41.8Zm-18.5,2.89A4.72,4.72,0,1,0,216.39,40,4.71,4.71,0,0,0,221.1,44.69Zm-23.31,1.19A4.79,4.79,0,1,0,193,41.09,4.78,4.78,0,0,0,197.79,45.88Zm-22.47,4a4.86,4.86,0,1,0-4.86-4.86A4.87,4.87,0,0,0,175.32,49.92Zm-21.43-3.17a4.94,4.94,0,1,0,4.94,4.93A4.93,4.93,0,0,0,153.89,46.75Zm-20.2,9a5,5,0,1,0,5,5A5,5,0,0,0,133.69,55.78ZM109.8,72.2a5.09,5.09,0,1,0,5.08-5.08A5.08,5.08,0,0,0,109.8,72.2ZM92.5,85.73a5.16,5.16,0,1,0,5.16-5.15A5.16,5.16,0,0,0,92.5,85.73ZM82.2,106.44A5.23,5.23,0,1,0,77,101.21,5.23,5.23,0,0,0,82.2,106.44Zm-13.52,6.7A5.31,5.31,0,1,0,74,118.45,5.3,5.3,0,0,0,68.68,113.14ZM51.91,137.26a5.38,5.38,0,1,0,5.38-5.38A5.38,5.38,0,0,0,51.91,137.26ZM48.2,162.93a5.46,5.46,0,1,0-5.46-5.45A5.45,5.45,0,0,0,48.2,162.93Zm-12.13,16a5.53,5.53,0,1,0,5.53-5.53A5.53,5.53,0,0,0,36.07,178.91Zm-4,22.48a5.61,5.61,0,1,0,5.61-5.61A5.61,5.61,0,0,0,32.05,201.39Zm10.19,23.32a5.68,5.68,0,1,0-5.68,5.68A5.68,5.68,0,0,0,42.24,224.71ZM38.41,253.6a5.76,5.76,0,1,0-5.75-5.76A5.76,5.76,0,0,0,38.41,253.6Zm4.65,10.63a5.83,5.83,0,1,0,5.82,5.83A5.83,5.83,0,0,0,43.06,264.23Zm13.16,27a5.91,5.91,0,1,0-5.9,5.91A5.9,5.9,0,0,0,56.22,291.2ZM60,305.1a6,6,0,1,0,6,6A6,6,0,0,0,60,305.1Zm12,18.35a6.05,6.05,0,1,0,6,6.05A6.05,6.05,0,0,0,72,323.45ZM92.14,346.3A6.13,6.13,0,1,0,86,352.43,6.12,6.12,0,0,0,92.14,346.3Zm9.81,8.79a6.2,6.2,0,1,0,6.2,6.2A6.2,6.2,0,0,0,102,355.09ZM119.59,368a6.28,6.28,0,1,0,6.28,6.28A6.28,6.28,0,0,0,119.59,368Zm19.19,10.76a6.36,6.36,0,1,0,6.35,6.36A6.35,6.35,0,0,0,138.78,378.77Zm27,14.84a6.43,6.43,0,1,0-6.42,6.43A6.43,6.43,0,0,0,165.74,393.61Zm21.79,6a6.5,6.5,0,1,0-6.5,6.5A6.5,6.5,0,0,0,187.53,399.57Zm16.2-3.34a6.58,6.58,0,1,0,6.58,6.58A6.58,6.58,0,0,0,203.73,396.23Zm23.42.29a6.65,6.65,0,1,0,6.65,6.65A6.65,6.65,0,0,0,227.15,396.52Zm22.92-2.64a6.73,6.73,0,1,0,6.73,6.72A6.72,6.72,0,0,0,250.07,393.88Zm22-5.39a6.8,6.8,0,1,0,6.8,6.8A6.8,6.8,0,0,0,272,388.49Zm27.72-1.09a6.88,6.88,0,1,0-6.88,6.87A6.88,6.88,0,0,0,299.76,387.4Zm19.6-10.28a7,7,0,1,0-6.95,6.94A6.95,6.95,0,0,0,319.36,377.12Zm18.11-12.5a7,7,0,1,0-7,7A7,7,0,0,0,337.47,364.62ZM346.81,343a7.1,7.1,0,1,0,7.1,7.09A7.09,7.09,0,0,0,346.81,343ZM49.7,93.63a4,4,0,1,0-4-4A4,4,0,0,0,49.7,93.63ZM35,115a4.06,4.06,0,1,0-4.06-4.06A4.06,4.06,0,0,0,35,115ZM22.91,138.09a4.15,4.15,0,1,0-4.15-4.15A4.14,4.14,0,0,0,22.91,138.09Zm-9.27,24.65A4.24,4.24,0,1,0,9.4,158.5,4.23,4.23,0,0,0,13.64,162.74Zm-6.24,26a4.32,4.32,0,1,0-4.32-4.32A4.32,4.32,0,0,0,7.4,188.72Zm-3,27.1A4.41,4.41,0,1,0,0,211.41,4.42,4.42,0,0,0,4.41,215.82ZM9.36,239a4.5,4.5,0,1,0-4.5,4.49A4.5,4.5,0,0,0,9.36,239Zm3.93,26.74a4.59,4.59,0,1,0-4.58,4.59A4.58,4.58,0,0,0,13.29,265.74Zm2.46,20.9a4.67,4.67,0,1,0,4.67,4.67A4.67,4.67,0,0,0,15.75,286.64Zm10,24.1a4.76,4.76,0,1,0,4.76,4.76A4.76,4.76,0,0,0,25.77,310.74Zm12.79,22.49a4.85,4.85,0,1,0,4.84,4.85A4.85,4.85,0,0,0,38.56,333.23ZM53.9,353.92a4.94,4.94,0,1,0,4.93,4.94A4.94,4.94,0,0,0,53.9,353.92Zm17.67,18.67a5,5,0,1,0,5,5A5,5,0,0,0,71.57,372.59ZM91.38,389a5.11,5.11,0,1,0,5.11,5.11A5.11,5.11,0,0,0,91.38,389Zm21.73,14a5.2,5.2,0,1,0,5.19,5.2A5.19,5.19,0,0,0,113.11,403Zm23.42,11.32a5.29,5.29,0,1,0,5.29,5.28A5.28,5.28,0,0,0,136.53,414.32Zm24.92,8.44a5.38,5.38,0,1,0,5.37,5.38A5.38,5.38,0,0,0,161.45,422.76Zm26.19,5.36a5.46,5.46,0,1,0,5.46,5.46A5.45,5.45,0,0,0,187.64,428.12Zm27.26,2.06a5.55,5.55,0,1,0,5.55,5.55A5.54,5.54,0,0,0,214.9,430.18Zm27.47-1.41a5.64,5.64,0,1,0,5.64,5.64A5.64,5.64,0,0,0,242.37,428.77ZM268.84,424a5.73,5.73,0,1,0,5.72,5.72A5.72,5.72,0,0,0,268.84,424Zm25.24-7.9a5.82,5.82,0,1,0,5.82,5.82A5.82,5.82,0,0,0,294.08,416.12Zm23.81-10.82a5.91,5.91,0,1,0,5.9,5.91A5.92,5.92,0,0,0,317.89,405.3ZM340,391.77a6,6,0,1,0,6,6A6,6,0,0,0,340,391.77Zm20.29-16a6.08,6.08,0,1,0,6.08,6.08A6.08,6.08,0,0,0,360.33,375.74Zm18.21-18.32a6.17,6.17,0,1,0,6.17,6.17A6.16,6.16,0,0,0,378.54,357.42ZM394.47,337a6.25,6.25,0,1,0,6.25,6.25A6.25,6.25,0,0,0,394.47,337Zm13.42-22.26a6.34,6.34,0,1,0,6.34,6.34A6.34,6.34,0,0,0,407.89,314.77Zm10.71-23.91a6.43,6.43,0,1,0,6.43,6.43A6.43,6.43,0,0,0,418.6,290.86Zm7.78-25.34A6.52,6.52,0,1,0,432.9,272,6.52,6.52,0,0,0,426.38,265.52ZM431,239a6.61,6.61,0,1,0,6.61,6.61A6.6,6.6,0,0,0,431,239Zm-5.4-20.87a6.69,6.69,0,1,0,6.69-6.69A6.68,6.68,0,0,0,425.62,218.08Zm-2.27-27.25a6.79,6.79,0,1,0,6.78-6.78A6.78,6.78,0,0,0,423.35,190.83Zm-5.56-26.18a6.87,6.87,0,1,0,6.87-6.87A6.88,6.88,0,0,0,417.79,164.65Zm-8.64-24.9a7,7,0,1,0,7-7A7,7,0,0,0,409.15,139.75Zm-4.47-16.37a7,7,0,1,0-7.05-7A7,7,0,0,0,404.68,123.38Zm-14.09-21.62a7.14,7.14,0,1,0-7.13-7.13A7.13,7.13,0,0,0,390.59,101.76ZM374.05,82.05a7.22,7.22,0,1,0-7.22-7.22A7.22,7.22,0,0,0,374.05,82.05ZM355.28,64.48A7.31,7.31,0,1,0,348,57.17,7.31,7.31,0,0,0,355.28,64.48ZM334.49,49.25a7.4,7.4,0,1,0-7.4-7.4A7.39,7.39,0,0,0,334.49,49.25Zm-22.6-12.68a7.48,7.48,0,1,0-7.49-7.48A7.48,7.48,0,0,0,311.89,36.57Zm-24.2-9.91a7.57,7.57,0,1,0-7.57-7.57A7.56,7.56,0,0,0,287.69,26.66Zm-25.58-6.92a7.66,7.66,0,1,0-7.66-7.66A7.66,7.66,0,0,0,262.11,19.74ZM235.36,16a7.75,7.75,0,1,0-7.75-7.74A7.74,7.74,0,0,0,235.36,16Zm-27.59-.33a7.84,7.84,0,1,0-7.84-7.84A7.84,7.84,0,0,0,207.77,15.67Zm-27,3.11a7.93,7.93,0,1,0-7.92-7.93A7.93,7.93,0,0,0,180.76,18.78Zm-25.88,6.35a8,8,0,1,0-8-8A8,8,0,0,0,154.88,25.13Zm-24.55,9.38a8.1,8.1,0,1,0-8.1-8.1A8.1,8.1,0,0,0,130.33,34.51Zm-23,12.2a8.19,8.19,0,1,0-8.18-8.18A8.19,8.19,0,0,0,107.32,46.71ZM86.07,61.52a8.28,8.28,0,1,0-8.27-8.27A8.28,8.28,0,0,0,86.07,61.52ZM66.79,78.72a8.36,8.36,0,1,0-8.36-8.36A8.36,8.36,0,0,0,66.79,78.72Z" fill="url(#a)"/></svg>